<svg width="934" height="282" viewBox="0 0 934 282" fill="none" xmlns="http://www.w3.org/2000/svg">
<path d="M40.2797 14.8245H0V222.199H38.5099H40.2797H126.791V186.95H40.2797V14.8245Z" fill="black"/>
<path d="M263.363 69.3348C251.509 57.48 234.72 51.5647 212.999 51.5647C197.192 51.5647 183.713 54.7284 172.561 61.0437C161.398 67.3711 152.913 75.5653 147.082 85.6382C141.252 95.7112 138.342 106.378 138.342 117.639H179.822C179.822 112.499 180.756 107.663 182.634 103.117C184.513 98.5718 187.859 94.8748 192.707 92.002C197.544 89.1413 204.308 87.711 212.999 87.711C224.453 87.711 232.357 90.4747 236.696 96.0021C241.036 101.529 243.508 108.839 244.102 117.93H283.8C282.018 97.396 275.206 81.1896 263.363 69.3469V69.3348Z" fill="black"/>
<path d="M244.102 117.918C233.035 118.112 221.629 118.863 209.883 120.136C198.126 121.421 187.216 123.942 177.143 127.688C167.07 131.445 158.925 137.07 152.706 144.573C146.488 152.076 143.373 162.246 143.373 175.083C143.373 186.15 145.846 195.519 150.779 203.229C155.713 210.926 162.428 216.805 170.925 220.853C179.41 224.902 189.095 226.926 199.956 226.926C209.035 226.926 217.532 224.999 225.435 221.144C233.338 217.29 239.557 212.114 244.102 205.592V222.187H284.091V136.27H244.102V117.906V117.918ZM244.102 156.731C244.102 165.616 242.32 172.537 238.769 177.471C235.217 182.416 230.623 185.919 224.999 187.992C219.375 190.065 213.593 191.107 207.665 191.107C201.338 191.107 195.968 189.774 191.519 187.107C187.071 184.44 184.853 180.052 184.853 173.919C184.853 166.028 189.544 160.246 198.926 156.585C208.308 152.937 223.362 151.3 244.102 151.7V156.731Z" fill="black"/>
<path d="M439.622 62.8135C428.555 55.3103 415.233 51.5527 399.633 51.5527C386.796 51.5527 376.129 54.2194 367.644 59.5528C360.929 63.7711 355.317 69.3955 350.759 76.3896V0H311.061V222.187H350.759V202.841C354.941 209.265 360.165 214.538 366.456 218.635C374.941 224.163 386.008 226.926 399.633 226.926C415.233 226.926 428.567 223.229 439.622 215.811C450.677 208.405 459.222 198.089 465.247 184.853C471.271 171.628 474.277 156.513 474.277 139.53C474.277 122.548 471.259 107.142 465.247 93.9051C459.222 80.6806 450.677 70.3046 439.622 62.8014V62.8135ZM429.1 165.761C426.034 173.567 421.5 179.737 415.476 184.271C409.451 188.816 401.9 191.083 392.809 191.083C383.717 191.083 375.475 188.816 369.257 184.271C363.038 179.725 358.396 173.507 355.329 165.604C352.262 157.713 350.735 149.009 350.735 139.53C350.735 130.051 352.262 120.766 355.329 112.863C358.384 104.972 363.026 98.6931 369.257 94.0506C375.475 89.408 383.33 87.0928 392.809 87.0928C402.288 87.0928 409.439 89.4202 415.476 94.0506C421.5 98.6931 426.034 104.96 429.1 112.863C432.155 120.766 433.694 129.651 433.694 139.53C433.694 149.409 432.167 157.943 429.1 165.749V165.761Z" fill="black"/>
<path d="M616.777 82.9594V56.3043H591.007H488.508V90.0747H565.564L486.132 195.532V222.199H617.662V188.125H537.563L616.777 82.9594Z" fill="black" fill-opacity="0.5"/>
<path d="M763.12 82.9594V56.3043H737.35H634.85V90.0747H711.907L632.475 195.532V222.199H764.005V188.125H683.906L763.12 82.9594Z" fill="black" fill-opacity="0.2"/>
<path d="M886.577 207.98L933.16 56.3043H890.505L855.098 185.034L819.703 56.3043H777.036L827.994 222.199H842.334L833.619 247.375H796.006V281.449H862.953L882.068 222.199H882.214L885.062 212.902L886.65 207.98H886.577Z" fill="black"/>
</svg>
